<?xml version="1.0" encoding="UTF-8" standalone="no"?>
<svg
   xmlns:dc="http://purl.org/dc/elements/1.1/"
   xmlns:cc="http://creativecommons.org/ns#"
   xmlns:rdf="http://www.w3.org/1999/02/22-rdf-syntax-ns#"
   xmlns:svg="http://www.w3.org/2000/svg"
   xmlns="http://www.w3.org/2000/svg"
   xmlns:sodipodi="http://sodipodi.sourceforge.net/DTD/sodipodi-0.dtd"
   xmlns:inkscape="http://www.inkscape.org/namespaces/inkscape"
   version="1.1"
   id="Layer_1"
   x="0px"
   y="0px"
   viewBox="0 0 122.88 51.73"
   style="enable-background:new 0 0 122.88 51.73"
   xml:space="preserve"
   sodipodi:docname="bridge-icon.svg"
   inkscape:version="1.0.2 (e86c870879, 2021-01-15)"><metadata
     id="metadata13"><rdf:RDF><cc:Work
         rdf:about=""><dc:format>image/svg+xml</dc:format><dc:type
           rdf:resource="http://purl.org/dc/dcmitype/StillImage" /><dc:title></dc:title></cc:Work></rdf:RDF></metadata><defs
     id="defs11" /><sodipodi:namedview
     pagecolor="#ffffff"
     bordercolor="#666666"
     borderopacity="1"
     objecttolerance="10"
     gridtolerance="10"
     guidetolerance="10"
     inkscape:pageopacity="0"
     inkscape:pageshadow="2"
     inkscape:window-width="1372"
     inkscape:window-height="860"
     id="namedview9"
     showgrid="false"
     inkscape:zoom="10.188802"
     inkscape:cx="61.439999"
     inkscape:cy="25.865"
     inkscape:window-x="19"
     inkscape:window-y="13"
     inkscape:window-maximized="0"
     inkscape:current-layer="Layer_1" /><style
     type="text/css"
     id="style2">.st0{fill-rule:evenodd;clip-rule:evenodd;}</style><g
     id="g6"
     transform="translate(0,-0.0064639)"
     style="fill:#3e4684;fill-opacity:1"><path
       class="st0"
       d="m 16.55,3.48 c 0.57,-4.79 7.86,-4.47 7.86,0 v 1.01 c 5.29,10.8 15.2,16.77 26.06,19 5.66,1.17 11.59,1.32 17.27,0.63 5.67,-0.69 11.08,-2.23 15.7,-4.46 7.2,-3.47 12.5,-8.59 13.91,-14.73 V 3.48 c 0.57,-4.79 7.86,-4.47 7.86,0 v 2.4 c 2.18,4.3 5.17,7.74 8.52,10.51 2.87,2.37 6.01,4.28 9.15,5.83 v 2.98 c -1.16,-0.55 -2.33,-1.13 -3.48,-1.77 v 9.1 h 3.48 v 4.59 H 105.21 V 51.74 H 97.35 V 37.11 H 24.41 V 51.73 H 16.55 V 37.11 H 0 v -4.59 h 2.91 v -9.4 C 1.95,23.67 0.97,24.18 0,24.67 v -3.01 c 2.75,-1.45 5.47,-3.17 7.97,-5.26 3.39,-2.84 6.39,-6.36 8.58,-10.79 z m 50.18,23.45 v 5.59 h -2.69 v -5.38 c -2.04,0.11 -4.09,0.11 -6.15,0 v 5.38 H 55.2 v -5.6 C 53.43,26.74 51.67,26.47 49.93,26.11 49.61,26.04 49.29,25.98 48.98,25.9 v 6.61 h -2.69 v -7.3 c -2.11,-0.6 -4.16,-1.35 -6.15,-2.25 v 9.55 H 37.45 V 21.64 c -2.2,-1.19 -4.29,-2.59 -6.22,-4.2 V 32.52 H 28.54 V 14.96 C 27.03,13.42 25.64,11.72 24.4,9.86 V 32.53 H 97.35 V 11.58 c -1.08,1.66 -2.41,3.21 -3.96,4.65 V 32.52 H 90.7 V 18.44 c -1.84,1.35 -3.89,2.57 -6.09,3.63 l -0.13,0.06 v 10.39 h -2.69 v -9.2 c -1.96,0.79 -4.02,1.47 -6.15,2.03 v 7.18 h -2.69 v -6.54 c -1.6,0.34 -3.24,0.61 -4.89,0.81 -0.44,0.04 -0.88,0.09 -1.33,0.13 z m 45.15,-8.59 v 14.19 h 4.83 V 21.84 c -1.61,-1.01 -3.18,-2.14 -4.69,-3.39 z m -2.69,14.19 V 15.87 c -1.43,-1.45 -2.77,-3.03 -3.98,-4.78 v 21.43 h 3.98 z M 13.11,15.21 v 17.32 h 3.44 V 10.91 c -1.05,1.56 -2.21,2.98 -3.44,4.3 z M 10.42,32.53 V 17.82 C 10.18,18.03 9.93,18.25 9.68,18.45 8.37,19.55 7,20.56 5.6,21.48 v 11.05 z"
       id="path4"
       style="fill:#3e4684;fill-opacity:1" /></g></svg>
