<svg version="1.1" viewBox="0.0 0.0 278.9475065616798 376.31496062992125" fill="none" stroke="none" stroke-linecap="square" stroke-miterlimit="10" xmlns:xlink="http://www.w3.org/1999/xlink" xmlns="http://www.w3.org/2000/svg"><clipPath id="p.0"><path d="m0 0l278.9475 0l0 376.31497l-278.9475 0l0 -376.31497z" clip-rule="nonzero"/></clipPath><g clip-path="url(#p.0)"><path fill="#000000" fill-opacity="0.0" d="m0 0l278.9475 0l0 376.31497l-278.9475 0z" fill-rule="evenodd"/><path fill="#ffffff" d="m-0.0065616798 27.369474l0 0c0 -14.533018 11.781338 -26.314356 26.314356 -26.314356l226.33191 0c6.979004 0 13.67215 2.7723975 18.607056 7.707297c4.934906 4.9348984 7.707306 11.6280575 7.707306 18.60706l0 321.57602c0 14.53302 -11.781342 26.314362 -26.314362 26.314362l-226.33191 0c-14.533018 0 -26.314356 -11.781342 -26.314356 -26.314362z" fill-rule="evenodd"/><path stroke="#666666" stroke-width="1.0" stroke-linejoin="round" stroke-linecap="butt" d="m-0.0065616798 27.369474l0 0c0 -14.533018 11.781338 -26.314356 26.314356 -26.314356l226.33191 0c6.979004 0 13.67215 2.7723975 18.607056 7.707297c4.934906 4.9348984 7.707306 11.6280575 7.707306 18.60706l0 321.57602c0 14.53302 -11.781342 26.314362 -26.314362 26.314362l-226.33191 0c-14.533018 0 -26.314356 -11.781342 -26.314356 -26.314362z" fill-rule="evenodd"/><path fill="#000000" fill-opacity="0.0" d="m13.124672 34.841137l0 0c0 -11.416019 9.254513 -20.670532 20.670536 -20.670532l210.18648 0c5.4821777 0 10.739807 2.177783 14.616272 6.0542593c3.8764954 3.8764782 6.0542603 9.1341095 6.0542603 14.616274l0 305.5251c0 11.416016 -9.254501 20.670532 -20.670532 20.670532l-210.18648 0c-11.416023 0 -20.670536 -9.254517 -20.670536 -20.670532z" fill-rule="evenodd"/><path stroke="#3e4684" stroke-width="4.0" stroke-linejoin="round" stroke-linecap="butt" d="m13.124672 34.841137l0 0c0 -11.416019 9.254513 -20.670532 20.670536 -20.670532l210.18648 0c5.4821777 0 10.739807 2.177783 14.616272 6.0542593c3.8764954 3.8764782 6.0542603 9.1341095 6.0542603 14.616274l0 305.5251c0 11.416016 -9.254501 20.670532 -20.670532 20.670532l-210.18648 0c-11.416023 0 -20.670536 -9.254517 -20.670536 -20.670532z" fill-rule="evenodd"/><path fill="#000000" fill-opacity="0.0" d="m63.62861 75.19153l0 0c0 -6.923088 5.612274 -12.535362 12.535362 -12.535362l127.46471 0c3.324585 0 6.5130005 1.3206863 8.863846 3.671524c2.35083 2.3508377 3.671524 5.539253 3.671524 8.863838l0 226.45685c0 6.923065 -5.612274 12.535339 -12.53537 12.535339l-127.46471 0c-6.923088 0 -12.535362 -5.612274 -12.535362 -12.535339z" fill-rule="evenodd"/><path stroke="#3e4684" stroke-width="4.0" stroke-linejoin="round" stroke-linecap="butt" d="m63.62861 75.19153l0 0c0 -6.923088 5.612274 -12.535362 12.535362 -12.535362l127.46471 0c3.324585 0 6.5130005 1.3206863 8.863846 3.671524c2.35083 2.3508377 3.671524 5.539253 3.671524 8.863838l0 226.45685c0 6.923065 -5.612274 12.535339 -12.53537 12.535339l-127.46471 0c-6.923088 0 -12.535362 -5.612274 -12.535362 -12.535339z" fill-rule="evenodd"/><path fill="#3e4684" d="m133.34099 185.9623c0.34295654 -1.4400635 -20.23404 -1.0957947 -25.926514 -6.582672c-5.692482 -5.4868774 -11.528 -21.86789 -8.228348 -26.338577c3.2996445 -4.470703 21.71653 -5.2865295 28.026245 -0.4855652c6.3097076 4.8009644 8.518814 29.089233 9.832016 29.291336c1.3132172 0.20210266 -5.3648224 -21.277344 -1.9527435 -28.078735c3.4120636 -6.801407 17.70253 -15.252411 22.425186 -12.72966c4.7226562 2.5227356 8.499573 20.721786 5.9107666 27.866135c-2.5888062 7.1443634 -22.478561 14.189423 -21.443573 15.0c1.0350037 0.81059265 19.307083 -11.477249 27.65355 -10.136475c8.346451 1.3407593 22.727463 13.176727 22.425186 18.181091c-0.30226135 5.0043793 -15.89238 12.43132 -24.238846 11.845154c-8.346451 -0.58618164 -24.603668 -15.86615 -25.83989 -15.362213c-1.2362213 0.50393677 16.313644 10.697296 18.422577 18.385834c2.1089172 7.6885376 -1.556427 26.601044 -5.7690277 27.745407c-4.2126007 1.1443481 -16.437454 -13.465012 -19.506561 -20.879272c-3.0691223 -7.414261 2.2821503 -22.965439 1.0918579 -23.606293c-1.1902924 -0.6408539 -1.6491699 15.8517 -8.233597 19.761154c-6.584427 3.909439 -27.50087 7.332016 -31.272964 3.6955414c-3.7720947 -3.6364899 2.5363083 -20.919083 8.640419 -25.514435c6.1041107 -4.5953674 27.641289 -0.6176758 27.98426 -2.0577545z" fill-rule="evenodd"/><path fill="#3e4684" d="m38.52204 39.717888c0.12073517 -0.55293274 -7.3976383 -0.71084976 -9.097113 -2.5275612c-1.6994762 -1.8167076 -2.2572174 -6.6552906 -1.0997372 -8.372702c1.1574802 -1.717411 6.1286087 -3.4851265 8.0446205 -1.9317589c1.916008 1.5533676 2.9903755 11.174105 3.4514427 11.25197c0.4610672 0.0778656 -1.7655296 -8.677166 -0.6850395 -10.784779c1.0804901 -2.1076107 5.5109367 -2.829834 7.1679764 -1.8608913c1.6570435 0.96894073 3.5660553 5.435257 2.7742805 7.6745396c-0.79177475 2.2392845 -7.8880157 5.4496956 -7.5249367 5.761154c0.3630829 0.3114624 7.2900276 -4.198162 9.703415 -3.8923874c2.4133835 0.3057747 4.882763 3.8049011 4.7769012 5.7270355c-0.105861664 1.9221344 -2.9986877 5.8215218 -5.412071 5.805771c-2.4133873 -0.01574707 -8.634296 -6.0936127 -9.068245 -5.900261c-0.4339447 0.19335175 5.836834 4.951008 6.464569 7.0603676c0.62773514 2.1093597 -1.2200356 5.15617 -2.698162 5.5958023c-1.4781303 0.43963242 -5.2060394 -0.95363235 -6.1706047 -2.9580078c-0.9645653 -2.0043716 0.80096054 -8.82196 0.3832016 -9.068241c-0.41775894 -0.24628067 -1.0218735 6.3867035 -2.8897629 7.5905533c-1.8678932 1.2038498 -6.9938755 1.0293083 -8.317585 -0.36745453c-1.3237095 -1.3967628 -1.3241482 -6.545933 0.37532806 -8.013123c1.6994743 -1.4671936 9.700787 -0.2370987 9.821522 -0.7900276z" fill-rule="evenodd"/><path fill="#3e4684" d="m87.136215 39.717888c0.12073517 -0.55293274 -7.3976364 -0.71084976 -9.097115 -2.5275612c-1.6994705 -1.8167076 -2.2572174 -6.6552906 -1.0997391 -8.372702c1.157486 -1.717411 6.1286087 -3.4851265 8.044624 -1.9317589c1.916008 1.5533676 2.9903717 11.174105 3.451439 11.25197c0.4610672 0.0778656 -1.7655258 -8.677166 -0.6850357 -10.784779c1.0804901 -2.1076107 5.510933 -2.829834 7.1679764 -1.8608913c1.6570435 0.96894073 3.5660553 5.435257 2.7742767 7.6745396c-0.79177094 2.2392845 -7.888008 5.4496956 -7.524933 5.761154c0.3630829 0.3114624 7.290024 -4.198162 9.703415 -3.8923874c2.4133835 0.3057747 4.8827667 3.8049011 4.7769012 5.7270355c-0.10586548 1.9221344 -2.9986877 5.8215218 -5.412071 5.805771c-2.413391 -0.01574707 -8.6343 -6.0936127 -9.068245 -5.900261c-0.4339447 0.19335175 5.836838 4.951008 6.464569 7.0603676c0.6277313 2.1093597 -1.2200394 5.15617 -2.698166 5.5958023c-1.4781265 0.43963242 -5.206032 -0.95363235 -6.170601 -2.9580078c-0.9645691 -2.0043716 0.80096436 -8.82196 0.3832016 -9.068241c-0.41776276 -0.24628067 -1.0218735 6.3867035 -2.8897629 7.5905533c-1.8678894 1.2038498 -6.9938736 1.0293083 -8.317589 -0.36745453c-1.3237076 -1.3967628 -1.3241425 -6.545933 0.37532806 -8.013123c1.6994781 -1.4671936 9.70079 -0.2370987 9.821526 -0.7900276z" fill-rule="evenodd"/><path fill="#3e4684" d="m136.27664 39.717888c0.12072754 -0.55293274 -7.397644 -0.71084976 -9.097122 -2.5275612c-1.6994705 -1.8167076 -2.2572174 -6.6552906 -1.0997391 -8.372702c1.157486 -1.717411 6.1286087 -3.4851265 8.044624 -1.9317589c1.9160156 1.5533676 2.9903717 11.174105 3.4514465 11.25197c0.46105957 0.0778656 -1.7655334 -8.677166 -0.68504333 -10.784779c1.0804901 -2.1076107 5.5109406 -2.829834 7.167984 -1.8608913c1.6570435 0.96894073 3.5660553 5.435257 2.7742767 7.6745396c-0.79177856 2.2392845 -7.8880157 5.4496956 -7.524933 5.761154c0.36306763 0.3114624 7.290024 -4.198162 9.7034 -3.8923874c2.413391 0.3057747 4.8827667 3.8049011 4.7769165 5.7270355c-0.10586548 1.9221344 -2.9986877 5.8215218 -5.412079 5.805771c-2.413391 -0.01574707 -8.634293 -6.0936127 -9.068237 -5.900261c-0.4339447 0.19335175 5.8368225 4.951008 6.464554 7.0603676c0.6277466 2.1093597 -1.2200317 5.15617 -2.6981506 5.5958023c-1.4781342 0.43963242 -5.2060394 -0.95363235 -6.1706085 -2.9580078c-0.9645691 -2.0043716 0.80096436 -8.82196 0.38320923 -9.068241c-0.4177704 -0.24628067 -1.0218811 6.3867035 -2.8897705 7.5905533c-1.8678894 1.2038498 -6.9938736 1.0293083 -8.317589 -0.36745453c-1.3237076 -1.3967628 -1.3241425 -6.545933 0.37532806 -8.013123c1.6994781 -1.4671936 9.70079 -0.2370987 9.821533 -0.7900276z" fill-rule="evenodd"/><path fill="#3e4684" d="m185.67952 39.717888c0.1207428 -0.55293274 -7.397629 -0.71084976 -9.097107 -2.5275612c-1.6994781 -1.8167076 -2.2572174 -6.6552906 -1.0997467 -8.372702c1.157486 -1.717411 6.1286163 -3.4851265 8.044632 -1.9317589c1.9160004 1.5533676 2.9903717 11.174105 3.4514313 11.25197c0.46107483 0.0778656 -1.7655182 -8.677166 -0.6850281 -10.784779c1.0804901 -2.1076107 5.5109253 -2.829834 7.1679688 -1.8608913c1.6570435 0.96894073 3.5660553 5.435257 2.7742767 7.6745396c-0.7917633 2.2392845 -7.8880157 5.4496956 -7.524933 5.761154c0.3630829 0.3114624 7.290024 -4.198162 9.703415 -3.8923874c2.413391 0.3057747 4.8827667 3.8049011 4.7769012 5.7270355c-0.10586548 1.9221344 -2.9986877 5.8215218 -5.4120636 5.805771c-2.413391 -0.01574707 -8.634308 -6.0936127 -9.068253 -5.900261c-0.4339447 0.19335175 5.836838 4.951008 6.464569 7.0603676c0.6277313 2.1093597 -1.2200317 5.15617 -2.698166 5.5958023c-1.4781189 0.43963242 -5.2060394 -0.95363235 -6.1705933 -2.9580078c-0.9645691 -2.0043716 0.80096436 -8.82196 0.38319397 -9.068241c-0.41775513 -0.24628067 -1.0218658 6.3867035 -2.8897552 7.5905533c-1.8679047 1.2038498 -6.993881 1.0293083 -8.317596 -0.36745453c-1.3237 -1.3967628 -1.3241425 -6.545933 0.3753357 -8.013123c1.6994781 -1.4671936 9.70079 -0.2370987 9.821518 -0.7900276z" fill-rule="evenodd"/><path fill="#3e4684" d="m237.68214 39.717888c0.1207428 -0.55293274 -7.397629 -0.71084976 -9.097107 -2.5275612c-1.6994781 -1.8167076 -2.2572174 -6.6552906 -1.0997467 -8.372702c1.157486 -1.717411 6.1286163 -3.4851265 8.044632 -1.9317589c1.9160004 1.5533676 2.9903717 11.174105 3.4514313 11.25197c0.46107483 0.0778656 -1.7655182 -8.677166 -0.6850281 -10.784779c1.0804901 -2.1076107 5.5109253 -2.829834 7.1679688 -1.8608913c1.6570435 0.96894073 3.5660553 5.435257 2.7742767 7.6745396c-0.7917633 2.2392845 -7.8880157 5.4496956 -7.524933 5.761154c0.3630829 0.3114624 7.290024 -4.198162 9.703415 -3.8923874c2.413391 0.3057747 4.8827667 3.8049011 4.7769012 5.7270355c-0.10586548 1.9221344 -2.9986877 5.8215218 -5.4120636 5.805771c-2.413391 -0.01574707 -8.634308 -6.0936127 -9.068253 -5.900261c-0.4339447 0.19335175 5.836838 4.951008 6.464569 7.0603676c0.6277313 2.1093597 -1.2200317 5.15617 -2.698166 5.5958023c-1.4781189 0.43963242 -5.206024 -0.95363235 -6.1705933 -2.9580078c-0.9645691 -2.0043716 0.80096436 -8.82196 0.38319397 -9.068241c-0.41775513 -0.24628067 -1.0218658 6.3867035 -2.8897552 7.5905533c-1.8679047 1.2038498 -6.993881 1.0293083 -8.317596 -0.36745453c-1.3237 -1.3967628 -1.3241425 -6.545933 0.3753357 -8.013123c1.6994781 -1.4671936 9.70079 -0.2370987 9.821518 -0.7900276z" fill-rule="evenodd"/><path fill="#3e4684" d="m237.68214 89.36618c0.1207428 -0.55293274 -7.397629 -0.71084595 -9.097107 -2.5275574c-1.6994781 -1.8167114 -2.2572174 -6.6552963 -1.0997467 -8.372704c1.157486 -1.7174072 6.1286163 -3.4851303 8.044632 -1.9317627c1.9160004 1.5533752 2.9903717 11.17411 3.4514313 11.251968c0.46107483 0.0778656 -1.7655182 -8.677162 -0.6850281 -10.784775c1.0804901 -2.1076126 5.5109253 -2.829834 7.1679688 -1.8608932c1.6570435 0.96894073 3.5660553 5.435257 2.7742767 7.6745453c-0.7917633 2.2392807 -7.8880157 5.449692 -7.524933 5.761154c0.3630829 0.3114624 7.290024 -4.198166 9.703415 -3.8923874c2.413391 0.30577087 4.8827667 3.8048935 4.7769012 5.727028c-0.10586548 1.922142 -2.9986877 5.8215256 -5.4120636 5.8057785c-2.413391 -0.01574707 -8.634308 -6.0936127 -9.068253 -5.900261c-0.4339447 0.19335175 5.836838 4.951004 6.464569 7.060364c0.6277313 2.1093597 -1.2200317 5.156166 -2.698166 5.5958023c-1.4781189 0.4396286 -5.206024 -0.95362854 -6.1705933 -2.9580078c-0.9645691 -2.0043716 0.80096436 -8.82196 0.38319397 -9.068237c-0.41775513 -0.24628448 -1.0218658 6.3867035 -2.8897552 7.5905457c-1.8679047 1.2038498 -6.993881 1.0293121 -8.317596 -0.3674469c-1.3237 -1.3967667 -1.3241425 -6.5459366 0.3753357 -8.01313c1.6994781 -1.467186 9.70079 -0.23709106 9.821518 -0.7900238z" fill-rule="evenodd"/><path fill="#3e4684" d="m237.68214 138.57616c0.1207428 -0.55293274 -7.397629 -0.71084595 -9.097107 -2.5275574c-1.6994781 -1.8167114 -2.2572174 -6.6552887 -1.0997467 -8.372704c1.157486 -1.7174149 6.1286163 -3.4851303 8.044632 -1.9317627c1.9160004 1.5533676 2.9903717 11.17411 3.4514313 11.251976c0.46107483 0.0778656 -1.7655182 -8.67717 -0.6850281 -10.784782c1.0804901 -2.1076126 5.5109253 -2.829834 7.1679688 -1.8608932c1.6570435 0.96894073 3.5660553 5.435257 2.7742767 7.6745453c-0.7917633 2.239273 -7.8880157 5.449692 -7.524933 5.761154c0.3630829 0.3114624 7.290024 -4.198166 9.703415 -3.892395c2.413391 0.30577087 4.8827667 3.8049011 4.7769012 5.7270355c-0.10586548 1.9221344 -2.9986877 5.821518 -5.4120636 5.805771c-2.413391 -0.01574707 -8.634308 -6.0936127 -9.068253 -5.9002533c-0.4339447 0.19334412 5.836838 4.951004 6.464569 7.060364c0.6277313 2.1093597 -1.2200317 5.1561737 -2.698166 5.5957947c-1.4781189 0.43963623 -5.206024 -0.95362854 -6.1705933 -2.9580078c-0.9645691 -2.004364 0.80096436 -8.821945 0.38319397 -9.068237c-0.41775513 -0.24627686 -1.0218658 6.3867035 -2.8897552 7.590561c-1.8679047 1.2038422 -6.993881 1.0292969 -8.317596 -0.36746216c-1.3237 -1.396759 -1.3241425 -6.545929 0.3753357 -8.013123c1.6994781 -1.4671936 9.70079 -0.23709106 9.821518 -0.7900238z" fill-rule="evenodd"/><path fill="#3e4684" d="m237.68214 187.82156c0.1207428 -0.55293274 -7.397629 -0.71084595 -9.097107 -2.5275574c-1.6994781 -1.8167114 -2.2572174 -6.655304 -1.0997467 -8.372711c1.157486 -1.7174072 6.1286163 -3.4851227 8.044632 -1.9317474c1.9160004 1.55336 2.9903717 11.174103 3.4514313 11.251968c0.46107483 0.0778656 -1.7655182 -8.67717 -0.6850281 -10.78479c1.0804901 -2.107605 5.5109253 -2.829834 7.1679688 -1.8608856c1.6570435 0.96894836 3.5660553 5.435257 2.7742767 7.6745453c-0.7917633 2.239273 -7.8880157 5.449692 -7.524933 5.761154c0.3630829 0.3114624 7.290024 -4.198166 9.703415 -3.892395c2.413391 0.30577087 4.8827667 3.8049011 4.7769012 5.7270355c-0.10586548 1.9221344 -2.9986877 5.821518 -5.4120636 5.805771c-2.413391 -0.01574707 -8.634308 -6.0936127 -9.068253 -5.9002533c-0.4339447 0.19334412 5.836838 4.951004 6.464569 7.060364c0.6277313 2.1093597 -1.2200317 5.1561737 -2.698166 5.5957947c-1.4781189 0.43963623 -5.206024 -0.95362854 -6.1705933 -2.9580078c-0.9645691 -2.004364 0.80096436 -8.821945 0.38319397 -9.068237c-0.41775513 -0.24627686 -1.0218658 6.3867035 -2.8897552 7.590561c-1.8679047 1.2038422 -6.993881 1.0292969 -8.317596 -0.36746216c-1.3237 -1.396759 -1.3241425 -6.545929 0.3753357 -8.013123c1.6994781 -1.4671936 9.70079 -0.23709106 9.821518 -0.7900238z" fill-rule="evenodd"/><path fill="#3e4684" d="m237.68214 237.0486c0.1207428 -0.55293274 -7.397629 -0.71084595 -9.097107 -2.5275574c-1.6994781 -1.8167114 -2.2572174 -6.655304 -1.0997467 -8.372711c1.157486 -1.7174072 6.1286163 -3.4851227 8.044632 -1.9317627c1.9160004 1.5533752 2.9903717 11.174103 3.4514313 11.251968c0.46107483 0.0778656 -1.7655182 -8.677155 -0.6850281 -10.784775c1.0804901 -2.107605 5.5109253 -2.829834 7.1679688 -1.8608856c1.6570435 0.9689331 3.5660553 5.435257 2.7742767 7.6745453c-0.7917633 2.239273 -7.8880157 5.449692 -7.524933 5.761154c0.3630829 0.3114624 7.290024 -4.198166 9.703415 -3.892395c2.413391 0.30577087 4.8827667 3.8049011 4.7769012 5.7270355c-0.10586548 1.9221344 -2.9986877 5.821518 -5.4120636 5.805771c-2.413391 -0.01574707 -8.634308 -6.0936127 -9.068253 -5.9002533c-0.4339447 0.19334412 5.836838 4.951004 6.464569 7.060364c0.6277313 2.1093597 -1.2200317 5.1561584 -2.698166 5.5957947c-1.4781189 0.43963623 -5.206024 -0.95362854 -6.1705933 -2.9580078c-0.9645691 -2.004364 0.80096436 -8.82196 0.38319397 -9.068237c-0.41775513 -0.24627686 -1.0218658 6.3867035 -2.8897552 7.5905457c-1.8679047 1.2038574 -6.993881 1.0293121 -8.317596 -0.3674469c-1.3237 -1.396759 -1.3241425 -6.545929 0.3753357 -8.013123c1.6994781 -1.4671936 9.70079 -0.23709106 9.821518 -0.7900238z" fill-rule="evenodd"/><path fill="#3e4684" d="m237.68214 286.27695c0.1207428 -0.552948 -7.397629 -0.71084595 -9.097107 -2.5275574c-1.6994781 -1.8167114 -2.2572174 -6.655304 -1.0997467 -8.372711c1.157486 -1.7174072 6.1286163 -3.485138 8.044632 -1.9317627c1.9160004 1.5533752 2.9903717 11.174103 3.4514313 11.251984c0.46107483 0.07785034 -1.7655182 -8.677185 -0.6850281 -10.78479c1.0804901 -2.107605 5.5109253 -2.829834 7.1679688 -1.8609009c1.6570435 0.9689636 3.5660553 5.435272 2.7742767 7.6745605c-0.7917633 2.2392883 -7.8880157 5.4496765 -7.524933 5.761139c0.3630829 0.3114624 7.290024 -4.1981506 9.703415 -3.892395c2.413391 0.30578613 4.8827667 3.8049011 4.7769012 5.727051c-0.10586548 1.9221191 -2.9986877 5.821533 -5.4120636 5.805786c-2.413391 -0.01574707 -8.634308 -6.093628 -9.068253 -5.9002686c-0.4339447 0.19332886 5.836838 4.950989 6.464569 7.060364c0.6277313 2.1093445 -1.2200317 5.1561584 -2.698166 5.5957947c-1.4781189 0.43963623 -5.206024 -0.9536438 -6.1705933 -2.9580078c-0.9645691 -2.004364 0.80096436 -8.82196 0.38319397 -9.068237c-0.41775513 -0.24627686 -1.0218658 6.386688 -2.8897552 7.5905457c-1.8679047 1.2038574 -6.993881 1.0293274 -8.317596 -0.36746216c-1.3237 -1.396759 -1.3241425 -6.545929 0.3753357 -8.013123c1.6994781 -1.4671936 9.70079 -0.23709106 9.821518 -0.79000854z" fill-rule="evenodd"/><path fill="#3e4684" d="m237.68214 335.50528c0.1207428 -0.5529175 -7.397629 -0.71084595 -9.097107 -2.5275574c-1.6994781 -1.8167114 -2.2572174 -6.6552734 -1.0997467 -8.372681c1.157486 -1.7174377 6.1286163 -3.485138 8.044632 -1.9317627c1.9160004 1.5533447 2.9903717 11.174103 3.4514313 11.251953c0.46107483 0.07788086 -1.7655182 -8.677155 -0.6850281 -10.7847595c1.0804901 -2.1076355 5.5109253 -2.829834 7.1679688 -1.8609009c1.6570435 0.9689331 3.5660553 5.4352417 2.7742767 7.67453c-0.7917633 2.2392883 -7.8880157 5.449707 -7.524933 5.7611694c0.3630829 0.3114624 7.290024 -4.198181 9.703415 -3.892395c2.413391 0.30578613 4.8827667 3.8049011 4.7769012 5.7270203c-0.10586548 1.9221497 -2.9986877 5.821533 -5.4120636 5.805786c-2.413391 -0.01574707 -8.634308 -6.093628 -9.068253 -5.9002686c-0.4339447 0.19335938 5.836838 4.9510193 6.464569 7.060364c0.6277313 2.109375 -1.2200317 5.156189 -2.698166 5.595825c-1.4781189 0.4396057 -5.206024 -0.9536438 -6.1705933 -2.9580078c-0.9645691 -2.0043945 0.80096436 -8.82196 0.38319397 -9.068268c-0.41775513 -0.24627686 -1.0218658 6.3867188 -2.8897552 7.590576c-1.8679047 1.2038269 -6.993881 1.0292969 -8.317596 -0.36746216c-1.3237 -1.396759 -1.3241425 -6.545929 0.3753357 -8.013123c1.6994781 -1.4671936 9.70079 -0.23709106 9.821518 -0.79003906z" fill-rule="evenodd"/><path fill="#3e4684" d="m190.45905 338.08008c0.1207428 -0.5529175 -7.397629 -0.71084595 -9.097107 -2.5275574c-1.6994781 -1.8167114 -2.2572174 -6.6552734 -1.0997467 -8.372681c1.157486 -1.7174072 6.1286163 -3.485138 8.044632 -1.9317627c1.9160004 1.5533752 2.9903717 11.174103 3.4514313 11.251953c0.46107483 0.07788086 -1.7655182 -8.677155 -0.6850281 -10.7847595c1.0804901 -2.107605 5.5109253 -2.829834 7.1679688 -1.8609009c1.6570435 0.9689331 3.5660553 5.435272 2.7742767 7.67453c-0.7917633 2.2392883 -7.8880005 5.449707 -7.524933 5.7611694c0.3630829 0.3114624 7.290039 -4.198181 9.703415 -3.892395c2.413391 0.30578613 4.8827667 3.8049011 4.7769012 5.727051c-0.10585022 1.9221191 -2.9986877 5.8215027 -5.4120636 5.8057556c-2.413391 -0.01574707 -8.634308 -6.0935974 -9.068253 -5.9002686c-0.4339447 0.19335938 5.836838 4.9510193 6.464569 7.060364c0.6277313 2.109375 -1.2200317 5.156189 -2.698166 5.595825c-1.4781189 0.43963623 -5.206024 -0.9536438 -6.1705933 -2.9580078c-0.9645691 -2.0043945 0.80096436 -8.82196 0.38319397 -9.068237c-0.41775513 -0.24630737 -1.0218658 6.386688 -2.8897552 7.5905457c-1.8678894 1.2038574 -6.993881 1.0292969 -8.317596 -0.36746216c-1.3237 -1.396759 -1.3241425 -6.545929 0.3753357 -8.013123c1.6994781 -1.4671936 9.70079 -0.23709106 9.821518 -0.79003906z" fill-rule="evenodd"/><path fill="#3e4684" d="m139.64803 338.08008c0.12072754 -0.5529175 -7.397644 -0.71084595 -9.097107 -2.5275574c-1.6994781 -1.8167114 -2.2572174 -6.6552734 -1.0997467 -8.372681c1.157486 -1.7174072 6.1286163 -3.485138 8.044617 -1.9317627c1.9160156 1.5533752 2.990387 11.174103 3.4514465 11.251953c0.46107483 0.07788086 -1.7655334 -8.677155 -0.68504333 -10.7847595c1.0804901 -2.107605 5.5109406 -2.829834 7.167984 -1.8609009c1.6570435 0.9689331 3.5660553 5.435272 2.7742767 7.67453c-0.79177856 2.2392883 -7.8880157 5.449707 -7.524933 5.7611694c0.3630829 0.3114624 7.290024 -4.198181 9.703415 -3.892395c2.413391 0.30578613 4.8827667 3.8049011 4.7769012 5.727051c-0.10586548 1.9221191 -2.9986877 5.8215027 -5.412079 5.8057556c-2.4133759 -0.01574707 -8.634293 -6.0935974 -9.068237 -5.9002686c-0.4339447 0.19335938 5.836838 4.9510193 6.464569 7.060364c0.6277313 2.109375 -1.2200317 5.156189 -2.698166 5.595825c-1.4781189 0.43963623 -5.2060394 -0.9536438 -6.1705933 -2.9580078c-0.9645691 -2.0043945 0.8009491 -8.82196 0.38319397 -9.068237c-0.41775513 -0.24630737 -1.0218658 6.386688 -2.8897705 7.5905457c-1.8678894 1.2038574 -6.993866 1.0292969 -8.317581 -0.36746216c-1.3237 -1.396759 -1.3241425 -6.545929 0.3753357 -8.013123c1.6994781 -1.4671936 9.70079 -0.23709106 9.821518 -0.79003906z" fill-rule="evenodd"/><path fill="#3e4684" d="m87.136215 338.08008c0.12073517 -0.5529175 -7.3976364 -0.71084595 -9.097115 -2.5275574c-1.6994705 -1.8167114 -2.2572174 -6.6552734 -1.0997391 -8.372681c1.157486 -1.7174072 6.1286087 -3.485138 8.044624 -1.9317627c1.916008 1.5533752 2.9903717 11.174103 3.451439 11.251953c0.4610672 0.07788086 -1.7655258 -8.677155 -0.6850357 -10.7847595c1.0804901 -2.107605 5.510933 -2.829834 7.1679764 -1.8609009c1.6570435 0.9689331 3.5660553 5.435272 2.7742767 7.67453c-0.79177094 2.2392883 -7.888008 5.449707 -7.524933 5.7611694c0.3630829 0.3114624 7.290024 -4.198181 9.703415 -3.892395c2.4133835 0.30578613 4.8827667 3.8049011 4.7769012 5.727051c-0.10586548 1.9221191 -2.9986877 5.8215027 -5.412071 5.8057556c-2.413391 -0.01574707 -8.6343 -6.0935974 -9.068245 -5.9002686c-0.4339447 0.19335938 5.836838 4.9510193 6.464569 7.060364c0.6277313 2.109375 -1.2200394 5.156189 -2.698166 5.595825c-1.4781265 0.43963623 -5.206032 -0.9536438 -6.170601 -2.9580078c-0.9645691 -2.0043945 0.80096436 -8.82196 0.3832016 -9.068237c-0.41776276 -0.24630737 -1.0218735 6.386688 -2.8897629 7.5905457c-1.8678894 1.2038574 -6.9938736 1.0292969 -8.317589 -0.36746216c-1.3237076 -1.396759 -1.3241425 -6.545929 0.37532806 -8.013123c1.6994781 -1.4671936 9.70079 -0.23709106 9.821526 -0.79003906z" fill-rule="evenodd"/><path fill="#3e4684" d="m38.52204 335.50528c0.12073517 -0.5529175 -7.3976383 -0.71084595 -9.097113 -2.5275574c-1.6994762 -1.8167114 -2.2572174 -6.6552734 -1.0997372 -8.372681c1.1574802 -1.7174377 6.1286087 -3.485138 8.0446205 -1.9317627c1.916008 1.5533447 2.9903755 11.174103 3.4514427 11.251953c0.4610672 0.07788086 -1.7655296 -8.677155 -0.6850395 -10.7847595c1.0804901 -2.1076355 5.5109367 -2.829834 7.1679764 -1.8609009c1.6570435 0.9689331 3.5660553 5.4352417 2.7742805 7.67453c-0.79177475 2.2392883 -7.8880157 5.449707 -7.5249367 5.7611694c0.3630829 0.3114624 7.2900276 -4.198181 9.703415 -3.892395c2.4133835 0.30578613 4.882763 3.8049011 4.7769012 5.7270203c-0.105861664 1.9221497 -2.9986877 5.821533 -5.412071 5.805786c-2.4133873 -0.01574707 -8.634296 -6.093628 -9.068245 -5.9002686c-0.4339447 0.19335938 5.836834 4.9510193 6.464569 7.060364c0.62773514 2.109375 -1.2200356 5.156189 -2.698162 5.595825c-1.4781303 0.4396057 -5.2060394 -0.9536438 -6.1706047 -2.9580078c-0.9645653 -2.0043945 0.80096054 -8.82196 0.3832016 -9.068268c-0.41775894 -0.24627686 -1.0218735 6.3867188 -2.8897629 7.590576c-1.8678932 1.2038269 -6.9938755 1.0292969 -8.317585 -0.36746216c-1.3237095 -1.396759 -1.3241482 -6.545929 0.37532806 -8.013123c1.6994743 -1.4671936 9.700787 -0.23709106 9.821522 -0.79003906z" fill-rule="evenodd"/><path fill="#3e4684" d="m35.74514 288.32944c0.120731354 -0.5529175 -7.39764 -0.71084595 -9.097115 -2.5275574c-1.6994743 -1.8167114 -2.2572174 -6.655304 -1.0997372 -8.372711c1.1574802 -1.7174072 6.1286087 -3.4851074 8.044619 -1.9317627c1.9160118 1.5533752 2.9903755 11.174103 3.4514427 11.251984c0.4610672 0.07785034 -1.7655296 -8.677185 -0.6850395 -10.78479c1.0804901 -2.107605 5.5109367 -2.829834 7.16798 -1.8608704c1.6570435 0.9689331 3.5660553 5.4352417 2.7742767 7.67453c-0.79177475 2.2392883 -7.888012 5.4496765 -7.524933 5.761139c0.36307907 0.3114624 7.2900276 -4.1981506 9.703411 -3.8923645c2.4133873 0.30575562 4.8827667 3.8049011 4.776905 5.7270203c-0.105861664 1.9221497 -2.9986877 5.821533 -5.412075 5.805786c-2.4133835 -0.01574707 -8.634296 -6.093628 -9.068241 -5.9002686c-0.4339447 0.19335938 5.836834 4.950989 6.4645653 7.060364c0.62773514 2.109375 -1.2200317 5.1561584 -2.698162 5.5957947c-1.4781265 0.43963623 -5.2060356 -0.9536133 -6.170601 -2.9580078c-0.9645691 -2.004364 0.80096054 -8.82196 0.3832016 -9.068237c-0.41776276 -0.24627686 -1.0218735 6.3867188 -2.8897667 7.5905457c-1.8678894 1.2038574 -6.9938736 1.0293274 -8.317583 -0.36743164c-1.3237095 -1.3967896 -1.3241482 -6.5459595 0.37532806 -8.013123c1.6994743 -1.4671936 9.7007885 -0.23712158 9.821524 -0.79003906z" fill-rule="evenodd"/><path fill="#3e4684" d="m35.74514 241.15358c0.120731354 -0.55293274 -7.39764 -0.71084595 -9.097115 -2.5275574c-1.6994743 -1.8167114 -2.2572174 -6.6552887 -1.0997372 -8.372696c1.1574802 -1.7174225 6.1286087 -3.485138 8.044619 -1.9317627c1.9160118 1.55336 2.9903755 11.174103 3.4514427 11.251968c0.4610672 0.0778656 -1.7655296 -8.67717 -0.6850395 -10.784775c1.0804901 -2.1076202 5.5109367 -2.829834 7.16798 -1.8609009c1.6570435 0.96894836 3.5660553 5.435257 2.7742767 7.6745453c-0.79177475 2.2392883 -7.888012 5.449692 -7.524933 5.761154c0.36307907 0.3114624 7.2900276 -4.198166 9.703411 -3.892395c2.4133873 0.30578613 4.8827667 3.8049011 4.776905 5.7270355c-0.105861664 1.9221344 -2.9986877 5.821533 -5.412075 5.805786c-2.4133835 -0.01574707 -8.634296 -6.0936127 -9.068241 -5.9002686c-0.4339447 0.19334412 5.836834 4.951004 6.4645653 7.060364c0.62773514 2.1093597 -1.2200317 5.1561737 -2.698162 5.59581c-1.4781265 0.43962097 -5.2060356 -0.9536438 -6.170601 -2.9580078c-0.9645691 -2.0043793 0.80096054 -8.82196 0.3832016 -9.068237c-0.41776276 -0.24629211 -1.0218735 6.386688 -2.8897667 7.5905457c-1.8678894 1.2038422 -6.9938736 1.0293121 -8.317583 -0.36746216c-1.3237095 -1.396759 -1.3241482 -6.545929 0.37532806 -8.013123c1.6994743 -1.4671783 9.7007885 -0.23709106 9.821524 -0.7900238z" fill-rule="evenodd"/><path fill="#3e4684" d="m35.74514 190.71c0.120731354 -0.5529175 -7.39764 -0.71084595 -9.097115 -2.5275574c-1.6994743 -1.8167114 -2.2572174 -6.6552887 -1.0997372 -8.372696c1.1574802 -1.7174072 6.1286087 -3.4851227 8.044619 -1.9317627c1.9160118 1.5533752 2.9903755 11.174103 3.4514427 11.251968c0.4610672 0.0778656 -1.7655296 -8.67717 -0.6850395 -10.784775c1.0804901 -2.107605 5.5109367 -2.829834 7.16798 -1.8608856c1.6570435 0.9689331 3.5660553 5.435257 2.7742767 7.67453c-0.79177475 2.2392883 -7.888012 5.449692 -7.524933 5.761154c0.36307907 0.3114624 7.2900276 -4.198166 9.703411 -3.8923798c2.4133873 0.30577087 4.8827667 3.8049011 4.776905 5.7270355c-0.105861664 1.9221344 -2.9986877 5.821518 -5.412075 5.805771c-2.4133835 -0.01574707 -8.634296 -6.0936127 -9.068241 -5.9002686c-0.4339447 0.19335938 5.836834 4.951004 6.4645653 7.060364c0.62773514 2.109375 -1.2200317 5.1561737 -2.698162 5.59581c-1.4781265 0.43963623 -5.2060356 -0.95362854 -6.170601 -2.9580078c-0.9645691 -2.0043793 0.80096054 -8.82196 0.3832016 -9.068237c-0.41776276 -0.24629211 -1.0218735 6.3867035 -2.8897667 7.5905457c-1.8678894 1.2038574 -6.9938736 1.0293121 -8.317583 -0.3674469c-1.3237095 -1.3967743 -1.3241482 -6.545944 0.37532806 -8.013123c1.6994743 -1.4671936 9.7007885 -0.23710632 9.821524 -0.79003906z" fill-rule="evenodd"/><path fill="#3e4684" d="m35.74514 138.67589c0.120731354 -0.55293274 -7.39764 -0.71084595 -9.097115 -2.5275574c-1.6994743 -1.8167114 -2.2572174 -6.6552887 -1.0997372 -8.372704c1.1574802 -1.7174072 6.1286087 -3.4851227 8.044619 -1.9317551c1.9160118 1.5533676 2.9903755 11.174103 3.4514427 11.251968c0.4610672 0.0778656 -1.7655296 -8.67717 -0.6850395 -10.784775c1.0804901 -2.1076126 5.5109367 -2.829834 7.16798 -1.8608932c1.6570435 0.96894073 3.5660553 5.4352493 2.7742767 7.6745377c-0.79177475 2.2392883 -7.888012 5.449692 -7.524933 5.761154c0.36307907 0.3114624 7.2900276 -4.198166 9.703411 -3.8923798c2.4133873 0.30577087 4.8827667 3.8048859 4.776905 5.7270203c-0.105861664 1.9221497 -2.9986877 5.821533 -5.412075 5.805786c-2.4133835 -0.01574707 -8.634296 -6.0936127 -9.068241 -5.9002686c-0.4339447 0.19335938 5.836834 4.951004 6.4645653 7.060364c0.62773514 2.1093597 -1.2200317 5.1561737 -2.698162 5.59581c-1.4781265 0.43962097 -5.2060356 -0.95362854 -6.170601 -2.9580078c-0.9645691 -2.0043793 0.80096054 -8.82196 0.3832016 -9.068237c-0.41776276 -0.24629211 -1.0218735 6.3867035 -2.8897667 7.5905457c-1.8678894 1.2038422 -6.9938736 1.0293121 -8.317583 -0.3674469c-1.3237095 -1.3967743 -1.3241482 -6.545944 0.37532806 -8.013138c1.6994743 -1.4671783 9.7007885 -0.23709106 9.821524 -0.7900238z" fill-rule="evenodd"/><path fill="#3e4684" d="m35.74514 89.19689c0.120731354 -0.55293274 -7.39764 -0.7108536 -9.097115 -2.5275574c-1.6994743 -1.8167114 -2.2572174 -6.6552963 -1.0997372 -8.372704c1.1574802 -1.7174149 6.1286087 -3.4851303 8.044619 -1.9317627c1.9160118 1.5533676 2.9903755 11.174103 3.4514427 11.251968c0.4610672 0.0778656 -1.7655296 -8.677162 -0.6850395 -10.784775c1.0804901 -2.1076126 5.5109367 -2.829834 7.16798 -1.8608932c1.6570435 0.96894073 3.5660553 5.435257 2.7742767 7.6745377c-0.79177475 2.2392883 -7.888012 5.4496994 -7.524933 5.761154c0.36307907 0.3114624 7.2900276 -4.1981583 9.703411 -3.8923874c2.4133873 0.3057785 4.8827667 3.8049011 4.776905 5.7270355c-0.105861664 1.9221344 -2.9986877 5.8215256 -5.412075 5.8057785c-2.4133835 -0.0157547 -8.634296 -6.0936203 -9.068241 -5.9002686c-0.4339447 0.19335175 5.836834 4.9510117 6.4645653 7.0603714c0.62773514 2.1093597 -1.2200317 5.156166 -2.698162 5.5958023c-1.4781265 0.4396286 -5.2060356 -0.95363617 -6.170601 -2.9580078c-0.9645691 -2.0043716 0.80096054 -8.82196 0.3832016 -9.068245c-0.41776276 -0.24627686 -1.0218735 6.3867035 -2.8897667 7.5905533c-1.8678894 1.2038498 -6.9938736 1.0293121 -8.317583 -0.36745453c-1.3237095 -1.396759 -1.3241482 -6.545929 0.37532806 -8.013123c1.6994743 -1.4671936 9.7007885 -0.23709106 9.821524 -0.7900238z" fill-rule="evenodd"/></g></svg>